ply
format ascii 1.0
element face 0
property list uchar int vertex_indices
element vertex 503
property float x
property float y
property float z
property uchar diffuse_red
property uchar diffuse_green
property uchar diffuse_blue
end_header
1.850472e+00 -1.092786e+00 -6.664109e+00 203 182 70
2.118502e+00 -8.339838e-01 -6.134747e+00 221 195 83
2.118502e+00 -8.339838e-01 -6.134747e+00 221 195 83
2.137989e+00 -8.243749e-01 -6.098988e+00 177 153 51
2.138879e+00 -7.269435e-01 -6.116726e+00 214 189 76
2.146872e+00 -6.529975e-01 -6.087644e+00 215 190 73
2.126778e+00 -7.643799e-01 -6.118797e+00 215 191 85
2.439832e+00 -4.442854e-01 -5.315420e+00 226 182 185
2.100791e+00 -9.260407e-01 -6.175141e+00 212 189 70
1.854545e+00 -1.055752e+00 -6.672928e+00 41 28 0
1.854545e+00 -1.055752e+00 -6.672928e+00 41 28 0
2.450435e+00 -3.351721e-01 -5.309805e+00 234 192 195
2.443181e+00 -3.833747e-01 -5.325782e+00 239 180 181
2.045798e+00 -6.033829e-01 -6.271391e+00 218 186 68
-8.135667e-01 4.993064e-01 -4.530726e+00 21 27 43
-8.120590e-01 4.996510e-01 -4.529566e+00 21 27 43
-8.135667e-01 4.993064e-01 -4.530726e+00 21 27 43
-7.799308e-01 -2.213538e-01 -4.984836e+00 23 24 28
8.692808e-01 5.636418e-02 -5.589887e+00 210 178 197
9.265001e-02 3.380464e-01 -5.453343e+00 152 22 32
-8.561873e-01 6.063687e-01 -4.553011e+00 192 205 242
1.039486e+00 -7.033722e-03 -5.445577e+00 180 117 131
1.307869e+00 2.011058e-01 -5.498400e+00 188 119 130
9.972873e-01 5.467757e-01 -5.452736e+00 213 193 208
9.972873e-01 5.467757e-01 -5.452736e+00 213 193 208
3.892890e-01 4.720086e-01 -5.335880e+00 72 2 3
-7.972580e-01 3.776931e-01 -4.582067e+00 187 201 240
8.299787e-01 5.393877e-01 -5.454320e+00 95 0 2
4.775195e-01 9.533373e-01 -5.498297e+00 163 18 29
2.263994e+00 -1.074619e+00 -5.788525e+00 202 197 106
9.925344e-01 4.943749e-02 -5.520293e+00 72 5 8
4.424187e-02 4.270550e-01 -5.436464e+00 225 56 94
4.424187e-02 4.270550e-01 -5.436464e+00 225 56 94
-5.147776e-01 4.285545e-01 -4.601371e+00 108 54 70
1.923329e-01 6.224301e-01 -5.351601e+00 217 202 221
-8.608429e-01 4.956216e-01 -4.511904e+00 18 20 30
4.230853e-01 1.038748e+00 -5.503749e+00 171 150 172
2.445324e+00 -4.451691e-01 -5.324560e+00 226 182 185
9.044667e-01 -6.481173e-02 -5.527104e+00 51 9 18
8.234455e-01 1.267304e-01 -5.632859e+00 139 29 46
-4.324059e-01 3.031426e-01 -4.550144e+00 157 99 113
1.041524e+00 6.332587e-01 -5.472525e+00 44 9 7
1.547340e-01 5.531843e-01 -5.336825e+00 82 11 26
-5.294154e-01 4.698067e-01 -4.592802e+00 235 181 195
-8.984763e-01 4.498180e-01 -4.553834e+00 183 230 255
-8.335692e-01 5.648820e-01 -4.428661e+00 179 225 255
-8.569980e-01 6.232013e-01 -4.535797e+00 243 231 243
-7.665992e-01 7.243047e-01 -4.488842e+00 225 165 177
9.535902e-01 -1.744188e-02 -5.544597e+00 66 13 22
1.223428e+00 9.349900e-02 -5.446301e+00 95 35 39
1.105485e+00 9.951037e-02 -5.497862e+00 172 101 113
6.635148e-01 1.903030e-01 -5.585387e+00 115 4 13
9.064327e-01 5.810170e-01 -5.442364e+00 104 11 16
-4.757723e-02 5.841279e-01 -5.346912e+00 108 9 22
-8.237688e-01 4.678166e-01 -4.543330e+00 255 254 254
5.604206e-01 9.151071e-01 -5.505872e+00 153 14 28
-8.641999e-01 7.339660e-01 -4.505404e+00 227 167 179
-9.686834e-01 7.327732e-01 -4.517815e+00 133 74 96
4.534180e-01 1.083181e+00 -5.497578e+00 166 22 33
1.550745e+00 1.227991e+00 -5.249323e+00 69 31 28
1.550745e+00 1.227991e+00 -5.249323e+00 69 31 28
1.708219e+00 -3.307857e+00 -1.226585e+01 97 90 106
-1.166148e+00 -2.753965e+00 -1.251304e+01 72 44 55
2.125515e+00 -8.033192e-01 -6.133103e+00 214 191 78
-7.818840e-01 -1.621535e-01 -4.964644e+00 251 253 255
9.151084e-01 -2.904786e-02 -5.582064e+00 173 134 153
2.063730e+00 5.724140e-01 -6.211671e+00 110 64 25
-8.044077e-01 4.051522e-01 -4.545309e+00 165 217 254
-9.253501e-01 4.233414e-01 -4.561632e+00 168 156 197
-5.719888e-01 5.978214e-01 -4.523177e+00 170 104 126
-8.150701e-01 7.068918e-01 -4.495228e+00 178 107 123
-8.565335e-01 7.035098e-01 -4.493428e+00 174 107 127
-8.573297e-01 7.040396e-01 -4.498562e+00 174 107 127
1.663102e+00 1.345966e+00 -5.393454e+00 69 30 30
9.727076e-01 1.535846e+00 -5.659950e+00 140 24 34
2.454866e+00 -2.824006e+00 -1.004504e+01 103 99 121
2.212497e+00 -2.934885e+00 -1.079988e+01 108 101 117
2.325285e+00 -2.494843e+00 -1.039865e+01 64 53 67
2.243010e+00 -2.304307e+00 -1.073442e+01 74 53 61
2.196831e+00 -2.310794e+00 -1.078973e+01 124 120 134
2.196831e+00 -2.310794e+00 -1.078973e+01 124 120 134
2.425187e+00 -5.448676e-01 -5.377803e+00 240 184 195
2.441612e+00 -5.107481e-01 -5.317893e+00 242 193 212
2.096250e+00 -6.498381e-01 -6.202386e+00 164 169 117
2.449686e+00 -4.309844e-01 -5.297682e+00 234 173 188
2.141968e+00 -5.618606e-01 -6.090865e+00 177 147 41
9.601059e-01 1.966404e-02 -5.545317e+00 171 124 141
-4.583407e-01 -1.995862e-02 -4.688635e+00 226 178 187
-4.499560e-01 2.228411e-02 -4.656374e+00 219 171 182
-4.112904e-01 9.758537e-02 -4.607652e+00 157 101 112
-4.112904e-01 9.758537e-02 -4.607652e+00 157 101 112
-8.377676e-01 9.089961e-02 -4.573303e+00 215 151 168
-4.181896e-01 2.504444e-01 -4.562490e+00 157 99 112
-8.292766e-01 2.351635e-01 -4.608904e+00 245 182 191
1.426444e-01 5.805042e-01 -5.317078e+00 233 218 230
1.697762e-01 5.990486e-01 -5.317477e+00 229 219 231
-8.106345e-01 6.224632e-01 -4.530970e+00 241 217 230
3.984140e-01 9.030158e-01 -5.483609e+00 203 132 150
-8.929090e-01 7.182655e-01 -4.499046e+00 232 172 179
4.535380e-01 1.010671e+00 -5.496578e+00 152 22 54
2.652744e+00 -3.186512e+00 -9.557703e+00 111 103 121
2.353427e+00 -3.493954e+00 -1.041863e+01 100 95 114
2.446087e+00 -3.344035e+00 -1.019317e+01 115 112 130
2.463861e+00 -3.024142e+00 -1.011338e+01 117 106 126
2.355087e+00 -2.617686e+00 -1.046419e+01 73 58 66
2.029015e+00 -2.161760e+00 -1.119508e+01 107 92 111
1.840253e+00 -2.325813e+00 -1.184082e+01 97 86 99
1.990758e+00 -1.965907e+00 -1.136184e+01 107 91 101
2.448807e+00 -6.396867e-01 -5.306820e+00 247 142 75
2.129613e+00 -7.651336e-01 -6.124556e+00 215 191 85
2.450517e+00 -4.701751e-01 -5.303840e+00 249 179 194
2.467181e+00 -2.917999e-01 -5.244953e+00 215 78 123
9.049281e-01 3.255374e-02 -5.547484e+00 223 194 208
1.111930e-01 5.661309e-01 -5.315200e+00 239 225 235
-6.498241e-02 5.559524e-01 -5.314886e+00 209 176 193
1.534248e+00 1.021708e+00 -5.161993e+00 159 96 109
5.705991e-01 9.509867e-01 -5.507133e+00 212 136 155
9.763548e-01 -2.621339e-01 -5.390187e+00 215 148 157
1.147656e-02 5.009534e-01 -5.398254e+00 243 238 244
-2.184561e-01 5.652979e-01 -5.144303e+00 34 19 22
1.920784e+00 7.871923e-01 -6.181181e+00 192 132 142
-3.552916e-02 2.919797e-01 -5.480798e+00 235 234 242
3.432814e-02 1.430306e+00 -5.812062e+00 161 15 26
-1.223838e+00 -2.883911e+00 -1.241358e+01 58 58 69
-1.783677e-02 1.825807e-01 -5.634909e+00 198 32 51
1.388613e+00 3.157584e-01 -5.626387e+00 67 9 9
-2.906636e+00 3.025191e+00 -1.196302e+01 23 21 26
3.391203e-01 -3.386707e+00 -1.303214e+01 9 9 9
7.746036e-01 7.789895e-02 -5.627214e+00 238 230 239
-1.007887e-01 2.213312e-01 -5.540967e+00 230 212 229
2.266677e+00 -1.076439e+00 -5.795170e+00 202 197 106
1.159237e+00 1.213128e-01 -5.489145e+00 189 123 137
3.040942e-01 4.932829e-01 -5.344356e+00 230 208 219
-1.065044e-02 7.326106e-01 -5.406404e+00 91 1 7
1.524916e+00 1.368101e+00 -5.352333e+00 169 119 130
8.049893e-01 -4.833525e+00 -1.438900e+01 42 42 51
2.312661e+00 -3.525373e+00 -1.059465e+01 37 33 48
2.312661e+00 -3.525373e+00 -1.059465e+01 37 33 48
2.893016e+00 -2.808680e+00 -8.885260e+00 60 49 63
2.574372e+00 -2.652602e+00 -9.706783e+00 64 55 67
2.343643e+00 -1.965791e+00 -8.056619e+00 188 174 148
4.732571e-01 -3.186287e+00 -1.283914e+01 104 81 65
2.459915e+00 -3.275281e-01 -5.282042e+00 224 181 194
2.459915e+00 -3.275281e-01 -5.282042e+00 224 181 194
2.165098e+00 -2.939665e-01 -6.094885e+00 220 184 47
6.052288e-01 1.620469e+00 -5.792596e+00 67 1 0
2.584389e+00 -3.087722e+00 -9.749899e+00 53 42 52
2.577993e+00 -3.078867e+00 -9.725257e+00 53 42 52
2.233809e+00 -1.870693e+00 -8.335657e+00 178 171 140
1.474936e+00 -2.531796e+00 -1.218764e+01 110 84 65
1.350439e+00 -2.487857e+00 -1.221310e+01 18 29 45
1.989083e+00 -2.116981e+00 -1.135485e+01 54 41 43
2.427913e+00 -5.491944e-01 -5.322897e+00 225 190 208
2.012424e+00 3.242342e-01 -6.303189e+00 147 111 50
5.088807e-01 8.211261e-01 -5.446811e+00 148 19 29
1.664380e+00 1.345439e+00 -5.396887e+00 69 30 30
2.251525e+00 -3.770410e+00 -1.068853e+01 84 79 97
2.451589e+00 -3.200949e+00 -1.019840e+01 98 89 106
2.758453e+00 -2.760189e+00 -9.169690e+00 56 43 54
1.690620e+00 -3.592893e+00 -1.225547e+01 10 10 12
1.698787e+00 -3.611425e+00 -1.231291e+01 10 10 12
2.616897e+00 -2.762888e+00 -9.624861e+00 59 47 61
2.616897e+00 -2.762888e+00 -9.624861e+00 59 47 61
2.429175e+00 -2.880361e+00 -1.019927e+01 59 52 64
2.429175e+00 -2.880361e+00 -1.019927e+01 59 52 64
1.596514e+00 -2.714292e+00 -1.241616e+01 47 38 45
1.909409e+00 -2.273355e+00 -1.152461e+01 52 42 42
1.855695e+00 -1.096565e+00 -6.682470e+00 203 182 70
2.430584e+00 -5.516466e-01 -5.328768e+00 227 196 213
2.456584e+00 -3.808098e-01 -5.277354e+00 236 188 201
2.462240e+00 -3.230950e-01 -5.254067e+00 245 191 207
2.077499e+00 -2.546761e-01 -6.074383e+00 114 69 10
-4.789247e-01 -7.141129e-02 -4.722226e+00 229 178 190
-3.861825e-01 1.869726e-01 -4.593724e+00 225 164 172
5.020158e-01 2.182720e-01 -5.594001e+00 125 4 14
2.047678e+00 2.732330e-01 -6.319339e+00 84 49 7
-3.294496e-01 4.113386e-01 -4.596270e+00 207 155 168
2.109896e+00 5.957464e-01 -6.202852e+00 176 139 90
3.945727e-01 5.361961e-01 -5.387034e+00 156 27 44
-5.458299e-01 5.504437e-01 -4.538816e+00 189 126 143
-5.458299e-01 5.504437e-01 -4.538816e+00 189 126 143
3.219922e-01 6.617410e-01 -5.263810e+00 219 197 209
4.625652e-01 6.783960e-01 -5.321088e+00 246 224 228
4.625652e-01 6.783960e-01 -5.321088e+00 246 224 228
-5.710934e-01 5.984145e-01 -4.521975e+00 170 104 126
5.396411e-01 7.892995e-01 -5.482728e+00 205 172 197
-6.528989e-01 6.567987e-01 -4.500492e+00 233 178 193
-6.918697e-01 6.887557e-01 -4.502037e+00 226 172 182
-9.466110e-01 7.064948e-01 -4.508529e+00 229 167 180
1.203140e+00 1.067947e+00 -5.136718e+00 184 132 143
2.718217e+00 -3.018832e+00 -9.358874e+00 52 45 57
2.417951e+00 -3.304102e+00 -1.028905e+01 101 97 119
2.355573e+00 -3.294768e+00 -1.039107e+01 105 97 118
2.114207e+00 -3.459117e+00 -1.105456e+01 53 51 65
2.097737e+00 -3.398425e+00 -1.107255e+01 85 78 96
2.044234e+00 -3.351333e+00 -1.123620e+01 39 35 49
2.694353e+00 -2.665348e+00 -9.427043e+00 57 41 47
2.694353e+00 -2.665348e+00 -9.427043e+00 57 41 47
2.320740e+00 -2.795187e+00 -1.053279e+01 57 46 54
1.585385e+00 -3.368938e+00 -1.263242e+01 88 85 103
2.372349e+00 -2.054635e+00 -7.981712e+00 187 178 144
2.466279e+00 -2.517960e+00 -9.984812e+00 67 55 65
1.643935e+00 -3.005390e+00 -1.243975e+01 54 48 60
2.234745e+00 -1.941662e+00 -8.285164e+00 113 98 80
2.035264e+00 -2.339332e+00 -1.126563e+01 63 47 57
2.243250e+00 -2.193518e+00 -1.063466e+01 121 118 134
2.089458e+00 -8.162061e-01 -6.213497e+00 216 192 86
2.435149e+00 -5.779110e-01 -5.403592e+00 221 70 104
2.432902e+00 -4.979844e-01 -5.369639e+00 239 180 193
1.999444e+00 -5.198694e-01 -6.396779e+00 228 191 78
2.181768e+00 -4.331109e-01 -6.025786e+00 229 196 57
2.181768e+00 -4.331109e-01 -6.025786e+00 229 196 57
8.417870e-01 -3.372773e-01 -5.406310e+00 169 46 60
2.132771e+00 -3.266613e-01 -6.079255e+00 97 62 2
2.467268e+00 -2.679700e-01 -5.236046e+00 232 191 210
2.107950e+00 -2.899487e-01 -6.084107e+00 120 75 14
2.467543e+00 -2.164163e-01 -5.273701e+00 240 192 195
2.068483e+00 2.876400e-01 -6.275148e+00 176 139 48
-3.099961e-01 4.287910e-01 -4.635665e+00 171 123 144
-2.978643e-01 4.554671e-01 -4.659190e+00 220 191 199
-9.417728e-01 4.639369e-01 -4.556567e+00 173 160 195
1.819775e-01 5.782774e-01 -5.319207e+00 73 21 45
4.004078e-01 6.224303e-01 -5.332684e+00 243 214 219
1.908585e-01 6.672703e-01 -5.358301e+00 71 6 13
-5.453385e-01 5.928323e-01 -4.544704e+00 237 174 184
-8.184131e-01 6.819766e-01 -4.490173e+00 228 165 173
-8.730649e-01 7.634519e-01 -4.512521e+00 157 100 122
-3.765141e+00 3.786114e+00 -1.163914e+01 146 93 86
2.129031e+00 -3.806185e+00 -1.100739e+01 51 45 59
2.167751e+00 -3.751090e+00 -1.089421e+01 89 87 105
9.498567e-01 -4.939327e+00 -1.427178e+01 48 48 57
2.159652e+00 -3.644414e+00 -1.087008e+01 88 85 102
2.597632e+00 -3.234523e+00 -9.769425e+00 59 54 71
2.878862e+00 -2.894470e+00 -8.895116e+00 56 47 62
2.305942e+00 -3.371739e+00 -1.058972e+01 99 95 118
2.247602e+00 -3.405461e+00 -1.078843e+01 56 46 58
2.734853e+00 -2.887047e+00 -9.358262e+00 117 110 126
2.284451e+00 -3.181819e+00 -1.053596e+01 53 46 61
2.435491e+00 -3.052859e+00 -1.018061e+01 68 59 74
2.081996e+00 -3.313720e+00 -1.118030e+01 88 81 97
1.571744e+00 -3.744936e+00 -1.262459e+01 36 26 32
2.417652e+00 -2.974967e+00 -1.021811e+01 100 93 109
1.909482e+00 -3.396859e+00 -1.168456e+01 52 47 68
1.909482e+00 -3.396859e+00 -1.168456e+01 52 47 68
2.566554e+00 -2.724003e+00 -9.744878e+00 47 34 47
2.024823e+00 -3.185697e+00 -1.139944e+01 90 78 86
1.768704e+00 -3.367010e+00 -1.206615e+01 44 36 49
2.361552e+00 -2.809086e+00 -1.030693e+01 57 46 60
1.910405e+00 -3.067325e+00 -1.165642e+01 57 49 60
1.908240e+00 -2.987765e+00 -1.161402e+01 89 85 99
1.908240e+00 -2.987765e+00 -1.161402e+01 89 85 99
2.411234e+00 -2.469999e+00 -1.019885e+01 106 99 115
2.411234e+00 -2.469999e+00 -1.019885e+01 106 99 115
2.327432e+00 -2.497464e+00 -1.040804e+01 64 53 67
2.327432e+00 -2.497464e+00 -1.040804e+01 64 53 67
1.217302e+00 -2.978186e+00 -1.370372e+01 74 67 78
2.072365e+00 -2.165237e+00 -1.115272e+01 68 55 68
2.267867e+00 -1.073995e+00 -5.797487e+00 197 196 106
2.250872e+00 -1.993360e+00 -1.065494e+01 71 60 79
2.113164e+00 -1.980443e+00 -1.089770e+01 91 79 87
2.113164e+00 -1.980443e+00 -1.089770e+01 91 79 87
1.950631e+00 -2.001103e+00 -1.142777e+01 62 50 55
2.439652e+00 -4.587011e-01 -5.353200e+00 233 187 193
2.195326e+00 -2.258531e-01 -6.005022e+00 175 144 33
2.473526e+00 -1.773886e-01 -5.262921e+00 237 192 205
2.119239e+00 5.239249e-01 -6.160212e+00 139 84 16
-7.028353e-01 4.462086e-01 -4.543815e+00 182 160 191
-8.960982e-01 4.887004e-01 -4.527542e+00 147 198 228
-7.719937e-01 6.120812e-01 -4.520341e+00 235 199 217
5.415494e-01 8.341070e-01 -5.458127e+00 202 159 176
-6.747277e-01 7.082594e-01 -4.501981e+00 146 87 107
3.991935e-01 9.035350e-01 -5.483549e+00 203 132 150
-7.769863e-01 7.810433e-01 -4.515176e+00 216 161 173
5.324758e-01 1.041137e+00 -5.520666e+00 142 34 59
-3.756427e+00 3.339146e+00 -1.159812e+01 144 80 72
-5.140671e+00 3.399790e+00 -1.138150e+01 128 72 58
-5.140671e+00 3.399790e+00 -1.138150e+01 128 72 58
-5.290418e+00 3.389790e+00 -1.131583e+01 125 72 64
-5.290418e+00 3.389790e+00 -1.131583e+01 125 72 64
-3.677096e+00 3.484629e+00 -1.167896e+01 129 57 41
-3.761944e+00 3.499769e+00 -1.172689e+01 130 57 30
-4.841218e+00 3.474281e+00 -1.135672e+01 130 72 56
-3.645061e+00 3.561066e+00 -1.165402e+01 132 53 30
-4.717803e+00 3.581172e+00 -1.141310e+01 134 72 65
-4.677590e+00 3.666929e+00 -1.138628e+01 135 75 58
-3.364229e+00 3.773772e+00 -1.167913e+01 143 85 86
2.309202e+00 -1.579351e+00 -5.630143e+00 214 38 63
7.078233e-01 2.706822e-01 -5.501958e+00 204 29 53
7.078233e-01 2.706822e-01 -5.501958e+00 204 29 53
-6.737135e-01 -2.773082e-01 -4.995078e+00 235 183 196
-7.218851e-01 5.404275e-01 -4.530646e+00 162 189 226
2.065925e+00 1.069580e+00 -5.847359e+00 212 176 116
-3.077111e+00 3.540094e+00 -1.427268e+01 29 26 34
8.024459e-01 -7.895404e-03 -5.620401e+00 81 4 10
-2.915522e+00 3.822074e+00 -1.626683e+01 96 85 103
1.197226e+00 -2.491243e+00 -1.286490e+01 25 29 49
1.869406e+00 -9.877606e-01 -6.639776e+00 203 178 60
1.256864e+00 -5.868363e-02 -5.279296e+00 215 151 156
7.149466e-01 7.017125e-02 -5.676656e+00 199 45 81
3.051891e-01 1.256153e-01 -5.514989e+00 204 42 82
7.263983e-01 1.614846e-01 -5.602770e+00 111 13 20
-5.153262e-01 3.868841e-01 -4.563805e+00 211 160 172
5.072161e-01 8.638447e-01 -5.500314e+00 138 12 28
-8.334174e-01 7.354748e-01 -4.499048e+00 224 165 176
1.973394e+00 -2.240115e+00 -1.150825e+01 104 96 105
8.414556e-01 1.148920e-02 -5.594271e+00 223 197 213
2.115141e+00 5.317876e-01 -6.141761e+00 149 93 24
1.065508e+00 5.846405e-01 -5.401634e+00 102 6 13
-7.150882e-01 8.945577e-01 -4.568523e+00 158 124 143
2.836569e+00 -3.046030e+00 -9.045130e+00 122 117 137
2.624924e+00 -3.174635e+00 -9.681547e+00 117 111 132
2.212305e+00 -2.934816e+00 -1.079969e+01 108 101 117
2.540499e+00 -2.505454e+00 -9.859881e+00 120 114 129
2.471588e+00 -2.524030e+00 -1.000847e+01 67 55 65
2.190075e+00 -1.387032e+00 -5.873820e+00 201 153 45
2.190075e+00 -1.387032e+00 -5.873820e+00 201 153 45
2.249288e+00 -2.306996e+00 -1.074878e+01 74 53 61
2.093805e+00 -7.786176e-01 -6.195501e+00 217 194 83
2.133318e+00 -6.805833e-01 -6.128174e+00 163 137 40
2.172723e+00 -4.595332e-01 -6.020881e+00 225 194 63
-7.626037e-01 3.725045e-01 -4.575766e+00 245 237 249
1.046065e+00 4.921485e-01 -5.418693e+00 201 41 74
2.828764e+00 -3.151184e+00 -9.222153e+00 116 113 136
2.404704e+00 -3.348423e+00 -1.022964e+01 51 47 63
2.812745e+00 -2.893402e+00 -9.126550e+00 115 100 121
2.681613e+00 -2.984534e+00 -9.470409e+00 32 30 45
2.545149e+00 -3.065535e+00 -9.950283e+00 115 109 126
2.276217e+00 -3.182906e+00 -1.067054e+01 113 109 127
2.502180e+00 -2.574019e+00 -9.919418e+00 67 61 76
2.322964e+00 -2.728109e+00 -1.049858e+01 116 108 123
2.354904e+00 -2.482614e+00 -1.031311e+01 104 104 123
2.437532e+00 -2.379569e+00 -1.006069e+01 111 103 121
1.991352e+00 -1.965949e+00 -1.136103e+01 107 91 101
2.426460e+00 -5.260337e-01 -5.333694e+00 208 106 133
2.426460e+00 -5.260337e-01 -5.333694e+00 208 106 133
2.418755e+00 -4.664563e-01 -5.359721e+00 206 60 87
2.448964e+00 -4.066687e-01 -5.314002e+00 208 95 123
2.194778e+00 -4.185881e-01 -5.973500e+00 167 135 16
-7.195403e-01 -2.560860e-01 -4.919224e+00 165 188 229
2.461954e+00 -1.937166e-01 -5.273347e+00 215 80 98
2.461954e+00 -1.937166e-01 -5.273347e+00 215 80 98
2.214918e+00 -1.614398e-02 -5.922435e+00 167 136 16
2.397950e+00 9.077468e-02 -5.413021e+00 184 158 92
-5.594372e-01 4.302541e-01 -4.592309e+00 220 158 170
2.282930e-01 6.373481e-01 -5.324328e+00 187 157 176
-6.471181e-01 8.735042e-01 -4.578436e+00 132 93 111
-2.371279e+00 2.979679e+00 -1.168646e+01 91 86 95
1.576555e+00 3.718220e-01 -5.864614e+00 205 41 51
-2.372101e+00 1.618787e+00 -1.205065e+01 124 105 114
1.833367e+00 -1.072620e+00 -6.623381e+00 226 207 90
-6.642860e-01 3.180620e-01 -4.674173e+00 223 153 168
-6.642860e-01 3.180620e-01 -4.674173e+00 223 153 168
1.320517e+00 1.234228e-01 -5.399537e+00 132 26 23
9.541579e-01 1.531332e-01 -5.638259e+00 135 14 22
-8.221053e-01 1.979570e-01 -4.587678e+00 223 160 168
1.387577e+00 1.263238e+00 -5.223710e+00 200 144 155
-1.845012e+00 1.907883e+00 -1.134170e+01 121 100 115
-4.076330e-01 -1.328205e-01 -4.919619e+00 251 208 218
1.134997e+00 6.533482e-02 -5.366633e+00 134 59 62
7.598467e-01 -2.196409e+00 -1.191482e+01 150 127 125
-6.965362e-01 2.996844e-01 -4.569134e+00 217 152 166
3.960193e-01 6.242839e-01 -5.349684e+00 249 236 236
2.067090e+00 -1.724024e+00 -8.753518e+00 197 186 164
1.864743e+00 -1.002076e+00 -6.629848e+00 234 210 88
2.146613e+00 -5.890500e-01 -6.047135e+00 243 216 80
2.178221e+00 -4.904880e-01 -5.970528e+00 190 158 35
2.184827e+00 -4.919066e-01 -5.981546e+00 190 158 35
-4.482168e-01 3.375568e-01 -4.547940e+00 186 125 131
-4.847707e-01 4.011372e-01 -4.556104e+00 149 91 108
-8.243222e-01 7.688632e-01 -4.517456e+00 184 119 134
2.249393e+00 -2.198356e+00 -1.065100e+01 153 149 170
2.068825e+00 -7.855655e-01 -6.231927e+00 184 192 135
2.068825e+00 -7.855655e-01 -6.231927e+00 184 192 135
2.159204e+00 -5.444064e-01 -6.065875e+00 246 219 83
1.156317e+00 -3.023448e-01 -5.286620e+00 163 93 103
1.239189e+00 -9.717403e-02 -5.265399e+00 156 83 91
-4.657029e-01 3.172441e-01 -4.554556e+00 247 197 208
2.530240e+00 -2.916130e+00 -9.900348e+00 140 131 150
2.449398e+00 -2.570701e+00 -1.006856e+01 128 115 128
2.300296e+00 -2.690248e+00 -1.052678e+01 80 68 82
2.093265e+00 -8.763521e-01 -6.187332e+00 200 170 46
2.093265e+00 -8.763521e-01 -6.187332e+00 200 170 46
2.137413e+00 -8.241702e-01 -6.098175e+00 200 173 44
2.098366e+00 -8.091396e-01 -6.155707e+00 196 170 45
2.098366e+00 -8.091396e-01 -6.155707e+00 196 170 45
1.891544e+00 -2.054497e+00 -1.158241e+01 74 49 49
2.185664e+00 -4.552540e-01 -5.977306e+00 206 173 42
-8.280498e-01 -3.684289e-01 -5.173536e+00 236 189 200
2.175121e+00 -3.403205e-01 -6.026620e+00 206 171 32
-8.686808e-01 -2.089164e-01 -4.984783e+00 157 204 237
-8.764776e-01 -1.637514e-01 -4.940806e+00 119 141 190
8.964755e-01 1.348055e-01 -5.616155e+00 150 41 66
-8.486728e-01 2.984917e-01 -4.588627e+00 228 166 183
-6.248514e-01 3.726017e-01 -4.565436e+00 202 130 146
3.548062e-01 6.141015e-01 -5.308238e+00 155 106 126
3.679849e-01 6.375290e-01 -5.318198e+00 247 224 229
-9.941445e-01 7.800527e-01 -4.558699e+00 249 196 203
1.614321e+00 1.369037e+00 -5.370863e+00 189 140 135
8.923028e-01 4.953928e-01 -5.400927e+00 213 195 202
8.923028e-01 4.953928e-01 -5.400927e+00 213 195 202
2.515417e+00 -3.126441e+00 -9.986760e+00 65 50 61
1.836318e+00 -3.628930e+00 -1.190057e+01 90 91 111
1.836318e+00 -3.628930e+00 -1.190057e+01 90 91 111
-4.394946e-01 2.521793e-01 -4.539772e+00 225 173 182
4.942328e-01 1.047891e+00 -5.513782e+00 140 30 54
1.596445e+00 2.798216e+00 -7.224975e+00 141 136 153
-5.165769e-01 3.794687e-01 -4.549362e+00 240 193 203
-7.485226e-02 6.591240e-01 -5.385752e+00 233 45 74
-2.751493e+00 9.710016e-01 -1.233720e+01 117 96 105
6.041566e-01 1.620599e+00 -5.788731e+00 96 5 3
2.452337e+00 -5.779767e-01 -5.301440e+00 255 64 99
2.452337e+00 -5.779767e-01 -5.301440e+00 255 64 99
1.468008e-01 5.503333e-01 -5.311465e+00 104 39 63
8.411000e-01 6.832474e-01 -5.496435e+00 234 44 79
4.269332e-01 8.448592e-01 -5.481292e+00 180 37 58
1.176400e+00 1.347284e+00 -5.596100e+00 75 43 27
2.558836e+00 -3.257967e+00 -9.871689e+00 128 117 139
1.109842e+00 -2.798786e-01 -5.271549e+00 244 181 190
2.089156e-01 5.331228e-01 -5.317563e+00 150 99 104
5.580642e-01 9.181660e-01 -5.501391e+00 194 28 51
1.492512e+00 1.230341e+00 -5.221111e+00 185 130 132
1.507204e-01 1.187812e+00 -5.568097e+00 117 3 7
5.696652e-01 1.337383e+00 -5.795243e+00 78 0 0
-3.199156e-01 1.664077e+00 -9.359410e+00 6 6 4
1.282052e+00 2.424904e+00 -7.861651e+00 19 14 17
1.603247e+00 -4.485810e+00 -1.266668e+01 92 88 103
2.428712e+00 -3.452182e+00 -1.019970e+01 126 118 137
2.024019e+00 -3.832399e+00 -1.136673e+01 117 113 130
1.716347e+00 -4.250046e+00 -1.239783e+01 60 44 54
1.977411e+00 -3.206139e+00 -1.146931e+01 74 62 78
2.071749e+00 -8.885719e-01 -6.224659e+00 242 216 84
2.082505e+00 -7.732591e-01 -6.174979e+00 240 220 94
4.666930e-01 8.368395e-01 -5.495739e+00 230 194 214
4.666930e-01 8.368395e-01 -5.495739e+00 230 194 214
-3.166702e-01 1.608110e+00 -9.385735e+00 72 59 60
-6.026343e-01 1.660047e+00 -9.927567e+00 14 12 15
1.575965e+00 2.330851e+00 -7.333777e+00 115 95 82
1.575965e+00 2.330851e+00 -7.333777e+00 115 95 82
2.549075e+00 -3.301913e+00 -9.942117e+00 124 118 149
2.622075e+00 -3.165583e+00 -9.651073e+00 146 138 160
1.747820e+00 -4.153546e+00 -1.222450e+01 106 103 119
2.710702e+00 -2.984209e+00 -9.427149e+00 124 114 122
2.230851e+00 -3.149176e+00 -1.074476e+01 117 110 129
1.778132e+00 -3.101390e+00 -1.202564e+01 110 102 119
-8.366967e-01 9.181626e-02 -4.570828e+00 236 173 188
-4.860912e-01 4.292476e-01 -4.584626e+00 196 138 152
4.557744e-01 8.918750e-01 -5.491329e+00 235 153 173
5.810305e-01 1.034012e+00 -5.522197e+00 162 28 49
4.475968e-01 1.034663e+00 -5.507201e+00 223 201 224
2.465054e+00 -2.480788e-01 -5.254416e+00 227 157 174
2.537383e+00 1.403716e-03 -5.239014e+00 221 180 195
2.446396e+00 -3.255131e-01 -5.265895e+00 205 169 184
2.490538e+00 -2.988617e-01 -5.217588e+00 213 36 57
2.470458e+00 -1.642132e-01 -5.220255e+00 220 180 189
2.448248e+00 -2.840324e-02 -5.238579e+00 214 39 53
2.506674e+00 1.443550e-01 -5.129445e+00 220 188 205
2.506674e+00 1.443550e-01 -5.129445e+00 220 188 205
2.465700e+00 -5.009950e-01 -5.285583e+00 214 37 60
-2.939305e+00 -5.741211e-01 -1.444113e+01 103 100 125
-6.577320e-01 6.570617e-01 -4.493473e+00 220 167 180
-9.299948e-01 6.814296e-01 -4.490548e+00 158 96 117
2.723395e+00 -2.895199e+00 -9.435297e+00 87 79 92
2.157270e+00 -7.007357e-01 -6.065331e+00 161 135 39
2.166067e+00 -4.970878e-01 -6.030054e+00 213 182 65
2.474105e+00 -8.955159e-02 -5.239045e+00 228 185 199
-2.955087e+00 -6.048890e-01 -1.460315e+01 105 101 122
-2.179450e+00 3.558791e-01 -1.196230e+01 30 23 27
-2.179450e+00 3.558791e-01 -1.196230e+01 30 23 27
-7.034762e-01 4.448637e-01 -4.540158e+00 168 140 174
4.179619e-01 1.101382e+00 -5.509478e+00 204 168 181
4.179619e-01 1.101382e+00 -5.509478e+00 204 168 181
2.823958e+00 -3.032131e+00 -9.019222e+00 81 74 89
2.147833e+00 -7.451618e-01 -6.071137e+00 159 131 35
2.147833e+00 -7.451618e-01 -6.071137e+00 159 131 35
2.457077e+00 -3.804028e-01 -5.273855e+00 226 180 196
2.463454e+00 -3.226631e-01 -5.253516e+00 229 182 199
2.471940e+00 1.990903e-02 -5.222634e+00 229 167 175
2.471940e+00 1.990903e-02 -5.222634e+00 229 167 175
2.510929e+00 1.767207e-01 -5.111073e+00 208 43 65
2.523417e+00 2.707554e-01 -5.090186e+00 190 71 99
-1.913344e+00 4.629608e-01 -1.155538e+01 41 29 37
-1.821229e+00 5.201575e-01 -1.141102e+01 39 29 37
-1.022855e+00 6.220864e-01 -4.514804e+00 177 111 130
3.970655e-01 9.025865e-01 -5.481660e+00 183 112 129
5.655171e-01 9.811893e-01 -5.510176e+00 134 8 22
2.715832e+00 -2.816902e+00 -9.346381e+00 41 31 41
2.109932e+00 -8.699659e-01 -6.160380e+00 205 177 65
2.475486e+00 -2.679112e-01 -5.240755e+00 235 185 202
2.468551e+00 -1.767183e-01 -5.249247e+00 230 182 190
2.488719e+00 -2.481782e-02 -5.182084e+00 190 82 110
2.488719e+00 -2.481782e-02 -5.182084e+00 190 82 110
2.516232e+00 1.530347e-01 -5.096855e+00 232 168 187
2.520464e+00 1.957667e-01 -5.082086e+00 249 156 168
2.520464e+00 1.957667e-01 -5.082086e+00 249 156 168
9.882237e-01 1.558101e+00 -5.642399e+00 190 117 131
9.345159e-02 7.037223e-02 -1.613217e-01 0 255 0
9.312964e-02 6.974307e-02 -2.113167e-01 255 255 0
-5.093707e-01 7.118275e-01 1.532754e-01 255 0 0
-5.068298e-01 7.089059e-01 1.034256e-01 255 255 0
-1.080059e+00 2.319349e-01 -4.751520e-01 0 255 0
-1.068930e+00 2.299682e-01 -5.238580e-01 255 255 0
-1.117500e+00 2.138477e+00 -3.083247e-01 255 0 0
-1.105158e+00 2.127992e+00 -3.556293e-01 255 255 0
